<svg width="13" height="13" viewBox="0 0 13 13" fill="none" xmlns="http://www.w3.org/2000/svg">
<path d="M12.1292 11.0958L9.37262 8.33929C10.0363 7.4558 10.3945 6.38041 10.3933 5.27542C10.3933 2.45297 8.09703 0.156677 5.27457 0.156677C2.45211 0.156677 0.155823 2.45297 0.155823 5.27542C0.155823 8.09788 2.45211 10.3942 5.27457 10.3942C6.37955 10.3954 7.45495 10.0371 8.33844 9.37347L11.095 12.13C11.2345 12.2547 11.4165 12.3213 11.6036 12.3161C11.7907 12.3109 11.9687 12.2342 12.101 12.1019C12.2333 11.9695 12.31 11.7915 12.3152 11.6044C12.3205 11.4174 12.2539 11.2354 12.1292 11.0958ZM1.61832 5.27542C1.61832 4.55229 1.83276 3.84539 2.23451 3.24412C2.63626 2.64286 3.20729 2.17422 3.87538 1.89749C4.54348 1.62076 5.27863 1.54835 5.98787 1.68943C6.69711 1.83051 7.34859 2.17873 7.85993 2.69007C8.37126 3.2014 8.71949 3.85288 8.86057 4.56213C9.00164 5.27137 8.92924 6.00652 8.6525 6.67461C8.37577 7.3427 7.90714 7.91373 7.30587 8.31548C6.70461 8.71724 5.99771 8.93167 5.27457 8.93167C4.30523 8.93051 3.37592 8.54493 2.6905 7.8595C2.00507 7.17407 1.61948 6.24477 1.61832 5.27542Z" fill="#2D3748"/>
</svg>
