<svg width="56" height="56" viewBox="0 0 56 56" fill="none" xmlns="http://www.w3.org/2000/svg">
<g filter="url(#filter0_d_4_80)">
<rect x="5.49976" y="2" width="45" height="45" rx="12" fill="#4FD1C5"/>
</g>
<path d="M24.484 32.9374C25.2607 32.9374 25.8903 32.3078 25.8903 31.5311C25.8903 30.7545 25.2607 30.1249 24.484 30.1249C23.7074 30.1249 23.0778 30.7545 23.0778 31.5311C23.0778 32.3078 23.7074 32.9374 24.484 32.9374Z" fill="white"/>
<path d="M34.3278 32.9374C35.1045 32.9374 35.7341 32.3078 35.7341 31.5311C35.7341 30.7545 35.1045 30.1249 34.3278 30.1249C33.5512 30.1249 32.9216 30.7545 32.9216 31.5311C32.9216 32.3078 33.5512 32.9374 34.3278 32.9374Z" fill="white"/>
<path d="M36.8239 18.558C36.7251 18.4371 36.6006 18.3398 36.4596 18.2731C36.3185 18.2063 36.1643 18.1718 36.0083 18.1721H22.6335L22.3641 16.6437C22.3354 16.4809 22.2502 16.3334 22.1236 16.2272C21.9969 16.1209 21.8369 16.0627 21.6715 16.0627H18.859C18.6726 16.0627 18.4937 16.1368 18.3619 16.2687C18.23 16.4005 18.1559 16.5794 18.1559 16.7659C18.1559 16.9523 18.23 17.1312 18.3619 17.2631C18.4937 17.3949 18.6726 17.469 18.859 17.469H21.0818L23.0883 28.8412C23.1171 29.004 23.2022 29.1514 23.3289 29.2577C23.4555 29.3639 23.6156 29.4221 23.7809 29.4221H35.0309C35.2174 29.4221 35.3962 29.348 35.5281 29.2162C35.66 29.0843 35.734 28.9055 35.734 28.719C35.734 28.5325 35.66 28.3537 35.5281 28.2218C35.3962 28.0899 35.2174 28.0159 35.0309 28.0159H24.3707L24.1228 26.6096H34.7426C34.9865 26.6093 35.2227 26.5248 35.4114 26.3703C35.6001 26.2158 35.7296 26.0009 35.778 25.7619L37.0436 19.4338C37.0741 19.2806 37.0702 19.1226 37.0322 18.9712C36.9942 18.8197 36.9231 18.6786 36.8239 18.558Z" fill="white"/>
<defs>
<filter id="filter0_d_4_80" x="-0.000244617" y="-2.38419e-07" width="56" height="56" filterUnits="userSpaceOnUse" color-interpolation-filters="sRGB">
<feFlood flood-opacity="0" result="BackgroundImageFix"/>
<feColorMatrix in="SourceAlpha" type="matrix" values="0 0 0 0 0 0 0 0 0 0 0 0 0 0 0 0 0 0 127 0" result="hardAlpha"/>
<feOffset dy="3.5"/>
<feGaussianBlur stdDeviation="2.75"/>
<feColorMatrix type="matrix" values="0 0 0 0 0 0 0 0 0 0 0 0 0 0 0 0 0 0 0.02 0"/>
<feBlend mode="normal" in2="BackgroundImageFix" result="effect1_dropShadow_4_80"/>
<feBlend mode="normal" in="SourceGraphic" in2="effect1_dropShadow_4_80" result="shape"/>
</filter>
</defs>
</svg>
