<svg width="56" height="56" viewBox="0 0 56 56" fill="none" xmlns="http://www.w3.org/2000/svg">
<g filter="url(#filter0_d_4_56)">
<rect x="5.49976" y="2" width="45" height="45" rx="12" fill="#4FD1C5"/>
</g>
<path d="M29.406 23.1057H35.5583C35.6019 23.1057 35.6436 23.123 35.6744 23.1538C35.7051 23.1845 35.7224 23.2263 35.7224 23.2698V31.5315C35.7224 32.2743 35.4273 32.9867 34.9021 33.5119C34.3768 34.0372 33.6644 34.3323 32.9216 34.3323H23.0779C22.3351 34.3323 21.6227 34.0372 21.0974 33.5119C20.5722 32.9867 20.2771 32.2743 20.2771 31.5315V17.469C20.2771 16.7262 20.5722 16.0138 21.0974 15.4885C21.6227 14.9633 22.3351 14.6682 23.0779 14.6682H27.1208C27.1644 14.6682 27.2061 14.6855 27.2369 14.7163C27.2676 14.747 27.2849 14.7888 27.2849 14.8323V20.9846C27.2849 21.5472 27.5084 22.0867 27.9062 22.4845C28.3039 22.8822 28.8435 23.1057 29.406 23.1057ZM24.4841 30.137H31.5154C31.705 30.137 31.8868 30.0616 32.0209 29.9276C32.1549 29.7935 32.2302 29.6117 32.2302 29.4221C32.2302 29.2325 32.1549 29.0507 32.0209 28.9166C31.8868 28.7826 31.705 28.7073 31.5154 28.7073H24.4841C24.2945 28.7073 24.1127 28.7826 23.9787 28.9166C23.8446 29.0507 23.7693 29.2325 23.7693 29.4221C23.7693 29.6117 23.8446 29.7935 23.9787 29.9276C24.1127 30.0616 24.2945 30.137 24.4841 30.137ZM24.4841 26.6213H31.5154C31.705 26.6213 31.8868 26.546 32.0209 26.412C32.1549 26.2779 32.2302 26.0961 32.2302 25.9065C32.2302 25.7169 32.1549 25.5351 32.0209 25.401C31.8868 25.267 31.705 25.1916 31.5154 25.1916H24.4841C24.2945 25.1916 24.1127 25.267 23.9787 25.401C23.8446 25.5351 23.7693 25.7169 23.7693 25.9065C23.7693 26.0961 23.8446 26.2779 23.9787 26.412C24.1127 26.546 24.2945 26.6213 24.4841 26.6213Z" fill="white" stroke="#4FD1C5" stroke-width="0.0234375"/>
<path d="M28.8444 15.2275L35.1641 21.5473L28.8444 15.2275ZM28.8444 15.2275C28.8443 15.2275 28.8443 15.2275 28.8443 15.2275M28.8444 15.2275L28.8443 15.2275M28.8443 15.2275C28.8337 15.2169 28.8202 15.2097 28.8054 15.2068C28.7907 15.2039 28.7754 15.2054 28.7615 15.2112C28.7477 15.2169 28.7358 15.2266 28.7274 15.2391C28.719 15.2515 28.7145 15.2662 28.7145 15.2812V20.9857C28.7145 21.1691 28.7873 21.345 28.917 21.4746C29.0466 21.6043 29.2225 21.6771 29.4059 21.6771H35.1104C35.1254 21.6771 35.1401 21.6726 35.1525 21.6642C35.165 21.6558 35.1747 21.6439 35.1804 21.6301C35.1862 21.6162 35.1877 21.6009 35.1848 21.5862C35.1819 21.5715 35.1747 21.5579 35.1641 21.5473L28.8443 15.2275Z" fill="white" stroke="#4FD1C5" stroke-width="0.0234375"/>
<defs>
<filter id="filter0_d_4_56" x="-0.000244617" y="-2.38419e-07" width="56" height="56" filterUnits="userSpaceOnUse" color-interpolation-filters="sRGB">
<feFlood flood-opacity="0" result="BackgroundImageFix"/>
<feColorMatrix in="SourceAlpha" type="matrix" values="0 0 0 0 0 0 0 0 0 0 0 0 0 0 0 0 0 0 127 0" result="hardAlpha"/>
<feOffset dy="3.5"/>
<feGaussianBlur stdDeviation="2.75"/>
<feColorMatrix type="matrix" values="0 0 0 0 0 0 0 0 0 0 0 0 0 0 0 0 0 0 0.02 0"/>
<feBlend mode="normal" in2="BackgroundImageFix" result="effect1_dropShadow_4_56"/>
<feBlend mode="normal" in="SourceGraphic" in2="effect1_dropShadow_4_56" result="shape"/>
</filter>
</defs>
</svg>
