<svg width="36" height="36" viewBox="0 0 36 36" fill="none" xmlns="http://www.w3.org/2000/svg">
<rect x="0.5" y="0.500061" width="35" height="35" rx="12" fill="white"/>
<path d="M18 9C13.0312 9 9 13.0312 9 18C9 22.9687 13.0312 27 18 27C22.9687 27 27 22.9687 27 18C27 13.0312 22.9687 9 18 9ZM17.7187 23.25C17.5333 23.25 17.3521 23.195 17.1979 23.092C17.0437 22.989 16.9236 22.8426 16.8526 22.6713C16.7817 22.5 16.7631 22.3115 16.7993 22.1296C16.8354 21.9477 16.9247 21.7807 17.0558 21.6496C17.1869 21.5185 17.354 21.4292 17.5359 21.393C17.7177 21.3568 17.9062 21.3754 18.0775 21.4464C18.2488 21.5173 18.3952 21.6375 18.4983 21.7917C18.6013 21.9458 18.6562 22.1271 18.6562 22.3125C18.6562 22.5611 18.5575 22.7996 18.3817 22.9754C18.2058 23.1512 17.9674 23.25 17.7187 23.25ZM19.2862 18.4687C18.5264 18.9787 18.4219 19.4461 18.4219 19.875C18.4219 20.049 18.3527 20.216 18.2297 20.339C18.1066 20.4621 17.9397 20.5312 17.7656 20.5312C17.5916 20.5312 17.4247 20.4621 17.3016 20.339C17.1785 20.216 17.1094 20.049 17.1094 19.875C17.1094 18.848 17.5819 18.0314 18.5541 17.3784C19.4578 16.7719 19.9687 16.3875 19.9687 15.5423C19.9687 14.9677 19.6406 14.5312 18.9614 14.2083C18.8016 14.1323 18.4458 14.0583 18.008 14.0634C17.4586 14.0705 17.032 14.2017 16.7034 14.4661C16.0837 14.9648 16.0312 15.5077 16.0312 15.5156C16.0271 15.6018 16.006 15.6863 15.9692 15.7644C15.9324 15.8424 15.8805 15.9124 15.8167 15.9704C15.7528 16.0284 15.6781 16.0732 15.5969 16.1024C15.5157 16.1315 15.4295 16.1444 15.3434 16.1402C15.2572 16.1361 15.1727 16.115 15.0946 16.0782C15.0166 16.0414 14.9466 15.9895 14.8886 15.9256C14.8306 15.8618 14.7857 15.7871 14.7566 15.7059C14.7275 15.6247 14.7146 15.5385 14.7187 15.4523C14.7239 15.3384 14.8031 14.3123 15.8798 13.4461C16.4381 12.997 17.1483 12.7636 17.9892 12.7533C18.5845 12.7463 19.1437 12.847 19.523 13.0261C20.6578 13.5628 21.2812 14.4577 21.2812 15.5423C21.2812 17.1281 20.2214 17.8402 19.2862 18.4687Z" fill="#4FD1C5"/>
</svg>
