<svg width="56" height="56" viewBox="0 0 56 56" fill="none" xmlns="http://www.w3.org/2000/svg">
<g filter="url(#filter0_d_4_31)">
<rect x="5.49976" y="2" width="45" height="45" rx="12" fill="#4FD1C5"/>
</g>
<path d="M28 15.3586C22.952 15.3586 18.8594 19.4512 18.8594 24.4992C18.8594 29.5472 22.952 33.6398 28 33.6398C33.048 33.6398 37.1406 29.5472 37.1406 24.4992C37.1406 19.4512 33.048 15.3586 28 15.3586Z" fill="white" stroke="#4FD1C5" stroke-width="0.75" stroke-miterlimit="10"/>
<path d="M27.9999 15.3586C25.448 15.3586 23.0486 19.4512 23.0486 24.4992C23.0486 29.5472 25.448 33.6398 27.9999 33.6398C30.5518 33.6398 32.9512 29.5472 32.9512 24.4992C32.9512 19.4512 30.5518 15.3586 27.9999 15.3586Z" fill="white" stroke="#4FD1C5" stroke-width="0.75" stroke-miterlimit="10"/>
<path d="M21.906 18.4055C23.5865 19.5986 25.702 20.3101 27.9999 20.3101C30.2978 20.3101 32.4133 19.5986 34.0938 18.4055" fill="white"/>
<path d="M21.906 18.4055C23.5865 19.5986 25.702 20.3101 27.9999 20.3101C30.2978 20.3101 32.4133 19.5986 34.0938 18.4055" stroke="#4FD1C5" stroke-width="0.75" stroke-linecap="round" stroke-linejoin="round"/>
<path d="M34.0938 30.5944C32.4133 29.4013 30.2978 28.6898 27.9999 28.6898C25.702 28.6898 23.5865 29.4013 21.906 30.5944" stroke="#4FD1C5" stroke-width="0.75" stroke-linecap="round" stroke-linejoin="round"/>
<path d="M27.9998 15.3586V33.6398" stroke="#4FD1C5" stroke-width="0.75" stroke-miterlimit="10"/>
<path d="M37.1406 24.499H18.8594" stroke="#4FD1C5" stroke-width="0.75" stroke-miterlimit="10"/>
<defs>
<filter id="filter0_d_4_31" x="-0.000244617" y="-2.38419e-07" width="56" height="56" filterUnits="userSpaceOnUse" color-interpolation-filters="sRGB">
<feFlood flood-opacity="0" result="BackgroundImageFix"/>
<feColorMatrix in="SourceAlpha" type="matrix" values="0 0 0 0 0 0 0 0 0 0 0 0 0 0 0 0 0 0 127 0" result="hardAlpha"/>
<feOffset dy="3.5"/>
<feGaussianBlur stdDeviation="2.75"/>
<feColorMatrix type="matrix" values="0 0 0 0 0 0 0 0 0 0 0 0 0 0 0 0 0 0 0.02 0"/>
<feBlend mode="normal" in2="BackgroundImageFix" result="effect1_dropShadow_4_31"/>
<feBlend mode="normal" in="SourceGraphic" in2="effect1_dropShadow_4_31" result="shape"/>
</filter>
</defs>
</svg>
