<svg width="56" height="56" viewBox="0 0 56 56" fill="none" xmlns="http://www.w3.org/2000/svg">
<g filter="url(#filter0_d_4_16)">
<rect x="5.49976" y="2" width="45" height="45" rx="12" fill="#4FD1C5"/>
</g>
<path d="M20.9464 17.8182H35.0089C35.1732 17.8181 35.3373 17.8285 35.5002 17.8494C35.445 17.4617 35.3118 17.0892 35.1088 16.7543C34.9057 16.4195 34.6369 16.1292 34.3186 15.9011C34.0003 15.6729 33.6391 15.5116 33.2568 15.4268C32.8745 15.342 32.4789 15.3356 32.094 15.4078L20.529 17.3822H20.5158C19.7898 17.521 19.1443 17.9318 18.7109 18.5305C19.3638 18.0662 20.1453 17.8171 20.9464 17.8182Z" fill="white"/>
<path d="M35.009 18.8749H20.9465C20.2009 18.8757 19.486 19.1723 18.9587 19.6995C18.4314 20.2268 18.1348 20.9417 18.134 21.6874V30.1249C18.1348 30.8705 18.4314 31.5854 18.9587 32.1127C19.486 32.64 20.2009 32.9366 20.9465 32.9374H35.009C35.7547 32.9366 36.4696 32.64 36.9969 32.1127C37.5241 31.5854 37.8207 30.8705 37.8215 30.1249V21.6874C37.8207 20.9417 37.5241 20.2268 36.9969 19.6995C36.4696 19.1723 35.7547 18.8757 35.009 18.8749ZM32.9216 27.3124C32.6435 27.3124 32.3716 27.2299 32.1404 27.0754C31.9091 26.9209 31.7289 26.7012 31.6224 26.4443C31.516 26.1873 31.4881 25.9046 31.5424 25.6318C31.5967 25.359 31.7306 25.1084 31.9273 24.9118C32.1239 24.7151 32.3745 24.5812 32.6473 24.5269C32.9201 24.4726 33.2028 24.5005 33.4598 24.6069C33.7167 24.7134 33.9364 24.8936 34.0909 25.1249C34.2454 25.3561 34.3279 25.628 34.3279 25.9061C34.3279 26.2791 34.1797 26.6368 33.916 26.9005C33.6523 27.1642 33.2946 27.3124 32.9216 27.3124Z" fill="white"/>
<path d="M18.156 24.6514V20.2788C18.156 19.3265 18.6833 17.73 20.5137 17.3841C22.0671 17.0928 23.6052 17.0928 23.6052 17.0928C23.6052 17.0928 24.616 17.7959 23.781 17.7959C22.946 17.7959 22.968 18.8726 23.781 18.8726C24.594 18.8726 23.781 19.9053 23.781 19.9053L20.5071 23.6187L18.156 24.6514Z" fill="white"/>
<defs>
<filter id="filter0_d_4_16" x="-0.000244617" y="-2.38419e-07" width="56" height="56" filterUnits="userSpaceOnUse" color-interpolation-filters="sRGB">
<feFlood flood-opacity="0" result="BackgroundImageFix"/>
<feColorMatrix in="SourceAlpha" type="matrix" values="0 0 0 0 0 0 0 0 0 0 0 0 0 0 0 0 0 0 127 0" result="hardAlpha"/>
<feOffset dy="3.5"/>
<feGaussianBlur stdDeviation="2.75"/>
<feColorMatrix type="matrix" values="0 0 0 0 0 0 0 0 0 0 0 0 0 0 0 0 0 0 0.02 0"/>
<feBlend mode="normal" in2="BackgroundImageFix" result="effect1_dropShadow_4_16"/>
<feBlend mode="normal" in="SourceGraphic" in2="effect1_dropShadow_4_16" result="shape"/>
</filter>
</defs>
</svg>
